<?xml version="1.0" encoding="utf-8"?>
<!-- Generator: Adobe Illustrator 24.1.1, SVG Export Plug-In . SVG Version: 6.00 Build 0)  -->
<svg version="1.1" id="Layer_1" xmlns="http://www.w3.org/2000/svg" xmlns:xlink="http://www.w3.org/1999/xlink" x="0px" y="0px"
	 viewBox="0 0 512 512" style="enable-background:new 0 0 512 512;" xml:space="preserve">
<style type="text/css">
	.st0{fill:#333333;}
</style>
<g id="XMLID_1_">
	<path id="XMLID_5_" class="st0" d="M223.4,288.2h-63.7l96-96l96,96h-63.7v159.7h-63.7V288.2H223.4z M383.8,160
		c0-14.2-29.1-96-143.9-96C162.8,64.1,96,125.4,96,192.3c-62.9,0-96,48.8-96,96c0,48.8,32.2,96,96,96h96v-41.7H96
		c-51.9,0-54.3-45.6-54.3-54.3c0-5.5,1.6-54.3,54.3-54.3h41.7v-41.7c0-44,49.5-86.5,102.2-86.5c81.8,0,99.9,49.5,102.2,57.4v38.5
		h41.7c26,0,86.5,7.1,86.5,70c0,66.9-71.6,70-86.5,70h-63.7v41.7h63.7c66.9,0,128.2-37,128.2-111.7C511.2,193.9,449.9,160,383.8,160
		z"/>
</g>
</svg>
